<?xml version="1.0" standalone="no"?>
<!DOCTYPE svg PUBLIC "-//W3C//DTD SVG 20010904//EN"
 "http://www.w3.org/TR/2001/REC-SVG-20010904/DTD/svg10.dtd">
<svg version="1.0" xmlns="http://www.w3.org/2000/svg"
 width="671.000000pt" height="650.000000pt" viewBox="0 0 671.000000 650.000000"
 preserveAspectRatio="xMidYMid meet">
<metadata>
Created by potrace 1.16, written by Peter Selinger 2001-2019
</metadata>
<g transform="translate(0.000000,650.000000) scale(0.100000,-0.100000)"
fill="#000000" stroke="none">
<path d="M3711 5595 c-41 -13 -105 -44 -141 -69 l-67 -46 -54 16 c-58 16 -243
33 -324 29 -70 -4 -155 -21 -200 -39 -20 -9 -45 -16 -54 -16 -29 0 -176 -59
-188 -76 -10 -14 -18 -10 -60 31 -56 55 -142 116 -199 140 -21 9 -69 19 -105
22 -138 12 -289 -81 -362 -222 -31 -62 -74 -172 -84 -215 -3 -14 -12 -33 -21
-42 -8 -10 -12 -28 -9 -43 2 -15 1 -42 -3 -60 -4 -19 -3 -38 2 -43 8 -8 -44
-89 -100 -157 -17 -20 -132 -262 -166 -350 -66 -166 -86 -249 -86 -365 0 -77
3 -101 11 -90 8 11 9 6 5 -20 -6 -37 31 -159 58 -189 8 -9 23 -34 34 -56 35
-68 145 -195 169 -195 7 0 13 -4 13 -10 0 -5 6 -10 13 -10 6 0 25 -13 40 -29
15 -17 51 -41 80 -55 28 -14 76 -39 105 -55 29 -17 60 -31 68 -31 8 0 25 -7
38 -15 24 -16 80 -38 190 -76 63 -22 91 -15 66 16 -7 8 -15 13 -17 11 -14 -14
-209 61 -323 124 -47 26 -96 51 -109 55 -46 14 -205 150 -257 221 -146 195
-186 345 -144 534 11 49 20 101 20 115 0 14 4 25 10 25 5 0 12 11 16 25 3 14
15 42 25 62 10 21 19 45 19 54 0 17 8 35 73 164 38 77 112 191 150 231 21 23
27 38 22 52 -7 24 17 163 42 237 54 164 147 297 234 337 89 41 138 49 200 33
75 -20 141 -50 164 -75 10 -11 22 -20 27 -20 5 0 19 -10 31 -23 12 -12 34 -30
50 -40 15 -10 38 -34 51 -55 27 -42 79 -102 89 -102 17 0 4 31 -28 66 -19 21
-35 45 -35 53 0 22 56 55 115 70 28 6 66 18 85 25 19 8 64 19 100 26 82 16
280 23 280 10 0 -6 7 -10 15 -10 8 0 15 5 15 10 0 6 7 10 15 10 8 0 15 -4 15
-10 0 -5 17 -12 38 -15 54 -10 106 -26 113 -37 4 -6 23 5 42 25 54 51 128 96
170 101 21 3 44 9 51 15 14 12 126 18 143 8 6 -4 15 -2 19 4 5 9 11 7 20 -6 8
-10 17 -16 20 -12 4 3 23 -5 43 -18 19 -14 38 -25 42 -25 9 0 115 -104 170
-167 63 -73 92 -125 130 -237 26 -77 28 -94 18 -113 -10 -18 -10 -26 -1 -35 9
-9 12 -9 12 3 0 9 3 10 8 3 4 -5 37 -27 74 -47 114 -62 213 -182 270 -327 58
-147 88 -402 83 -702 -4 -179 -7 -214 -25 -265 -12 -32 -25 -69 -30 -83 -37
-115 -42 -139 -36 -156 6 -15 12 -6 31 41 14 32 29 83 35 112 6 29 15 53 19
53 5 0 12 19 16 43 4 23 9 49 11 57 2 8 6 87 9 175 5 156 -6 374 -26 485 -5
30 -11 66 -13 80 -6 45 -28 120 -37 125 -4 3 -6 12 -2 20 3 8 0 15 -6 15 -6 0
-11 10 -11 23 0 12 -9 37 -20 55 -11 18 -20 39 -20 47 0 8 -4 15 -10 15 -5 0
-10 5 -10 11 0 34 -135 171 -206 210 -33 17 -64 35 -70 40 -12 10 -26 55 -30
99 -3 33 -52 158 -76 192 -10 14 -18 31 -18 37 0 6 -51 63 -114 125 -104 104
-119 115 -179 135 -87 28 -172 27 -266 -4z"/>
<path d="M4570 3335 c0 -8 4 -15 9 -15 8 0 65 -64 164 -185 18 -22 46 -62 62
-90 15 -27 31 -52 35 -55 13 -9 68 -114 90 -170 11 -30 32 -77 45 -105 35 -74
85 -361 85 -489 0 -24 5 -36 14 -36 19 0 25 68 14 153 -13 94 -8 111 20 67 12
-19 29 -57 38 -85 8 -27 19 -59 24 -70 27 -60 44 -148 44 -230 1 -84 -1 -95
-38 -172 l-38 -81 -92 -40 c-50 -22 -110 -47 -133 -56 -47 -17 -143 -32 -143
-22 0 7 78 104 119 147 26 28 27 39 2 39 -10 0 -36 -20 -57 -45 -22 -24 -63
-70 -91 -101 -29 -32 -53 -62 -53 -67 0 -5 -15 -26 -32 -47 -18 -20 -61 -72
-95 -116 -61 -79 -128 -148 -233 -241 -55 -49 -55 -49 -163 -62 -102 -13 -179
-12 -426 5 -40 2 -84 13 -117 29 -29 14 -63 25 -76 25 -13 0 -54 14 -93 30
-38 17 -84 33 -101 36 -62 11 -153 50 -183 77 -34 30 -41 33 -41 15 0 -16 60
-68 79 -68 9 0 39 -12 66 -25 28 -14 58 -25 68 -25 10 0 51 -13 90 -29 40 -15
92 -34 117 -41 25 -7 65 -20 90 -30 55 -22 102 -33 155 -35 22 -2 77 -8 123
-14 77 -11 119 -10 212 4 19 3 66 9 104 14 60 9 74 15 110 48 90 85 214 215
261 275 27 35 60 74 72 87 11 13 27 35 35 50 18 35 26 40 56 32 38 -10 126 6
197 35 33 14 80 33 105 43 25 9 52 21 60 26 58 38 138 233 126 308 -4 23 -7
49 -7 57 -1 22 -49 193 -59 205 -4 6 -13 28 -20 50 -18 55 -47 106 -76 131
-17 15 -27 39 -34 80 -6 33 -15 68 -19 79 -5 11 -30 74 -56 140 -26 66 -54
127 -61 136 -8 8 -14 21 -14 28 0 11 -101 161 -125 187 -5 6 -26 32 -45 58
-19 26 -50 63 -67 83 -36 39 -40 49 -20 56 19 7 6 14 -40 21 -35 5 -43 3 -43
-9z"/>
<path d="M2278 3188 c-7 -24 -18 -49 -25 -56 -7 -7 -13 -21 -14 -30 -3 -63
-43 -208 -64 -228 -7 -7 -15 -50 -19 -96 -4 -46 -14 -110 -23 -143 -8 -33 -17
-82 -19 -110 -5 -69 -8 -88 -17 -102 -8 -13 1 -43 14 -43 9 0 11 5 14 50 3 34
33 188 57 290 11 47 21 94 22 106 1 11 5 25 9 31 4 6 18 55 31 109 13 55 33
124 45 154 22 58 28 110 11 110 -5 0 -15 -19 -22 -42z"/>
<path d="M2495 2880 c-9 -16 -21 -30 -29 -30 -8 0 -24 -36 -40 -89 -21 -68
-33 -91 -52 -101 -13 -8 -24 -20 -25 -29 0 -9 -2 -29 -5 -46 l-3 -30 16 33 c9
17 20 32 25 32 14 0 9 -33 -8 -52 -14 -14 -14 -20 -4 -33 10 -12 10 -15 -4
-15 -9 0 -19 7 -23 16 -4 12 -9 8 -20 -17 -18 -43 -14 -52 19 -35 15 8 38 16
50 18 13 2 23 10 24 18 0 8 3 22 7 30 3 8 13 49 22 90 9 41 21 89 27 105 5 17
11 37 12 45 4 24 35 88 46 95 15 9 12 25 -5 25 -8 0 -21 -13 -30 -30z"/>
<path d="M2529 2543 c-19 -2 -48 -15 -65 -29 -16 -14 -41 -32 -56 -40 -14 -7
-36 -26 -48 -41 l-23 -28 5 27 c4 21 1 26 -14 25 -21 -1 -24 -13 -5 -20 10 -4
10 -6 0 -6 -7 -1 -13 -12 -13 -25 0 -13 -17 -46 -38 -73 -137 -173 -251 -417
-276 -588 -2 -16 -5 -31 -5 -33 -2 -8 -92 66 -196 162 -50 46 -124 88 -180
102 -27 7 -29 6 -16 -9 7 -9 36 -28 65 -42 28 -14 81 -53 117 -88 107 -99 180
-162 196 -165 10 -3 13 -15 11 -40 -3 -35 -5 -37 -41 -40 -34 -3 -177 27 -237
50 -14 5 -36 11 -50 14 -14 2 -55 10 -92 17 -37 8 -73 10 -80 6 -21 -13 3 -29
63 -39 72 -13 174 -37 254 -60 22 -6 72 -15 110 -18 68 -7 70 -8 73 -36 7 -55
-15 -83 -76 -101 -106 -32 -187 -59 -197 -67 -5 -4 -20 -8 -33 -8 -26 0 -171
-48 -186 -61 -20 -18 2 -17 69 0 112 30 242 67 352 100 116 35 113 35 113 20
0 -6 18 -37 41 -69 43 -62 56 -70 199 -125 25 -9 53 -21 62 -26 11 -5 20 -5
23 2 5 7 12 6 21 -2 21 -18 289 -5 308 14 8 8 36 19 63 26 26 7 71 23 98 36
28 13 66 27 85 31 74 14 235 124 182 124 -10 0 -28 -9 -39 -19 -28 -27 -108
-66 -163 -81 -25 -7 -54 -16 -65 -20 -11 -5 -45 -16 -75 -25 -30 -9 -64 -21
-75 -26 -83 -39 -231 -43 -363 -10 -174 43 -224 81 -280 211 -29 69 -35 107
-29 204 9 136 42 262 100 381 13 28 28 61 32 74 7 22 130 210 145 221 4 3 12
15 19 28 6 12 19 22 28 22 9 0 14 3 10 6 -3 4 8 18 25 33 112 95 115 96 181
106 26 4 47 11 47 16 0 9 -12 9 -81 2z"/>
</g>
</svg>
