<svg width="640" height="640" xmlns="http://www.w3.org/2000/svg">
 <!-- Created with Method Draw - http://github.com/duopixel/Method-Draw/ -->
 <g>  
  <path id="svg_9" d="m180,180.5l126,121" stroke-opacity="null" stroke-linecap="null" stroke-linejoin="null" stroke-width="1.5" stroke="#000" fill-opacity="null" fill="none"/>
  <path id="svg_10" d="m158,331.5l155,-27" stroke-opacity="null" stroke-linecap="null" stroke-linejoin="null" stroke-width="1.5" stroke="#000" fill-opacity="null" fill="none"/>
  <path id="svg_11" d="m473,154.5l-165,149" stroke-opacity="null" stroke-linecap="null" stroke-linejoin="null" stroke-width="1.5" stroke="#000" fill-opacity="null" fill="none"/>
  <path id="svg_12" d="m372,487.5l-61,-184" stroke-opacity="null" stroke-linecap="null" stroke-linejoin="null" stroke-width="1.5" stroke="#000" fill-opacity="null" fill="none"/>
  <path id="svg_4" d="m157,178.5c0,-11.60221 9.39779,-21 21,-21c11.60221,0 21,9.39779 21,21c0,11.60221 -9.39779,21 -21,21c-11.60221,0 -21,-9.39779 -21,-21z" stroke-opacity="null" stroke-linecap="null" stroke-linejoin="null" stroke-width="1.5" stroke="#000" fill-opacity="null" fill="#fff"/>
  <path id="svg_6" d="m453,152.5c0,-11.60221 9.39779,-21 21,-21c11.60221,0 21,9.39779 21,21c0,11.60221 -9.39779,21 -21,21c-11.60221,0 -21,-9.39779 -21,-21z" stroke-opacity="null" stroke-linecap="null" stroke-linejoin="null" stroke-width="1.5" stroke="#000" fill-opacity="null" fill="#fff"/>
  <path id="svg_7" d="m289,302.5c0,-11.60221 9.39779,-21 21,-21c11.60221,0 21,9.39779 21,21c0,11.60221 -9.39779,21 -21,21c-11.60221,0 -21,-9.39779 -21,-21z" stroke-opacity="null" stroke-linecap="null" stroke-linejoin="null" stroke-width="1.5" stroke="#000" fill-opacity="null" fill="#fff"/>
  <path id="svg_5" d="m145,331.5c0,-11.60221 9.39779,-21 21,-21c11.60221,0 21,9.39779 21,21c0,11.60221 -9.39779,21 -21,21c-11.60221,0 -21,-9.39779 -21,-21z" stroke-opacity="null" stroke-linecap="null" stroke-linejoin="null" stroke-width="1.5" stroke="#000" fill-opacity="null" fill="#fff"/>
  <path id="svg_8" d="m349,485.5c0,-11.60221 9.39779,-21 21,-21c11.60221,0 21,9.39779 21,21c0,11.60221 -9.39779,21 -21,21c-11.60221,0 -21,-9.39779 -21,-21z" stroke-opacity="null" stroke-linecap="null" stroke-linejoin="null" stroke-width="1.5" stroke="#000" fill-opacity="null" fill="#fff"/>
 </g>
</svg>
