<?xml version="1.0" standalone="no"?>
<!DOCTYPE svg PUBLIC "-//W3C//DTD SVG 20010904//EN"
 "http://www.w3.org/TR/2001/REC-SVG-20010904/DTD/svg10.dtd">
<svg version="1.0" xmlns="http://www.w3.org/2000/svg"
 width="1920.000000pt" height="1080.000000pt" viewBox="0 0 1920.000000 1080.000000"
 preserveAspectRatio="xMidYMid meet">
<metadata>
Created by potrace 1.16, written by Peter Selinger 2001-2019
</metadata>
<g transform="translate(0.000000,1080.000000) scale(0.100000,-0.100000)"
fill="#000000" stroke="none">
<path d="M6155 6340 c-134 -27 -241 -87 -337 -189 -130 -139 -185 -303 -175
-520 13 -309 180 -519 457 -577 131 -28 347 -9 465 40 l35 15 0 92 c0 69 -3
90 -12 86 -154 -68 -272 -89 -388 -69 -96 16 -155 46 -221 112 -71 70 -107
145 -126 261 -14 83 -14 101 0 186 57 352 358 491 730 338 15 -7 17 1 17 89 0
96 0 97 -27 107 -89 34 -314 50 -418 29z"/>
<path d="M9103 6207 l-93 -28 0 -105 0 -104 -75 0 -75 0 0 -80 0 -80 75 0 75
0 0 -268 c0 -293 9 -357 56 -419 45 -60 95 -78 209 -78 138 0 145 6 145 99 l0
74 -42 -15 c-77 -26 -145 4 -166 75 -8 26 -12 125 -12 286 l0 246 110 0 110 0
0 80 0 80 -110 0 -109 0 -3 133 -3 133 -92 -29z"/>
<path d="M11543 6207 l-93 -28 0 -105 0 -104 -75 0 -75 0 0 -80 0 -80 75 0 75
0 0 -268 c0 -293 9 -357 56 -419 45 -60 95 -78 209 -78 138 0 145 6 145 99 l0
74 -42 -15 c-77 -26 -145 4 -166 75 -8 26 -12 125 -12 286 l0 246 110 0 110 0
0 80 0 80 -110 0 -109 0 -3 133 -3 133 -92 -29z"/>
<path d="M7114 5976 c-218 -50 -343 -222 -344 -471 0 -281 180 -465 455 -465
281 0 465 188 465 477 0 227 -96 381 -278 444 -75 26 -217 33 -298 15z m227
-160 c54 -22 88 -54 114 -106 65 -128 51 -347 -28 -437 -50 -57 -100 -77 -192
-77 -94 0 -140 19 -198 83 -82 91 -97 300 -30 422 50 94 111 128 224 129 44 0
91 -6 110 -14z"/>
<path d="M8302 5975 c-67 -19 -131 -62 -171 -117 l-31 -42 0 77 0 77 -95 0
-95 0 0 -455 0 -455 95 0 95 0 0 289 c0 305 3 327 49 392 43 62 84 83 165 87
61 3 76 0 106 -20 20 -13 46 -45 60 -73 25 -50 25 -52 28 -362 l3 -313 95 0
95 0 -3 353 -3 352 -31 66 c-48 100 -121 147 -243 155 -41 2 -86 -2 -119 -11z"/>
<path d="M9838 5980 c-56 -10 -141 -37 -180 -57 -27 -13 -28 -16 -28 -98 l0
-85 48 31 c65 41 161 69 238 69 114 0 164 -37 184 -136 7 -31 10 -58 7 -60 -2
-2 -69 -13 -148 -24 -173 -24 -260 -49 -315 -89 -56 -42 -95 -117 -102 -197
-9 -119 34 -207 129 -259 49 -27 62 -30 149 -30 84 0 102 3 153 28 38 19 69
44 90 73 18 24 35 43 40 44 4 0 7 -29 7 -65 l0 -65 90 0 90 0 0 329 c0 305 -2
334 -21 396 -26 84 -89 153 -164 179 -58 20 -200 29 -267 16z m269 -548 c-10
-152 -93 -242 -222 -242 -65 0 -105 18 -135 61 -19 25 -22 40 -18 89 7 99 43
122 233 150 66 10 126 18 134 19 11 1 13 -14 8 -77z"/>
<path d="M10870 5980 c-172 -32 -303 -144 -355 -305 -29 -87 -28 -277 2 -357
43 -116 129 -205 240 -249 49 -20 77 -23 183 -23 111 -1 132 2 185 24 l60 25
3 83 c2 46 -1 82 -5 80 -116 -58 -129 -62 -209 -62 -70 -1 -88 3 -140 29 -100
51 -147 142 -148 285 0 109 24 171 93 241 68 68 116 84 228 77 58 -4 91 -12
131 -32 l52 -26 0 89 0 90 -52 16 c-63 19 -205 27 -268 15z"/>
</g>
</svg>
