<?xml version="1.0" encoding="UTF-8" standalone="no"?>
<!DOCTYPE svg PUBLIC "-//W3C//DTD SVG 1.1//EN" "http://www.w3.org/Graphics/SVG/1.1/DTD/svg11.dtd">
<svg version="1.1" xmlns="http://www.w3.org/2000/svg" xmlns:xlink="http://www.w3.org/1999/xlink" preserveAspectRatio="xMidYMid meet" viewBox="0 0 1920 1080" width="1920" height="1080"><defs><path d="M2560.58 871.32C2178.86 871.32 1940.28 871.32 1844.85 871.32C1780.9 871.32 1720.2 899.54 1678.98 948.44C1631.98 1004.21 1557.34 1092.77 1510.68 1148.13C1485.49 1178.02 1436.77 1163.27 1432.39 1124.43C1403.6 869.15 1323.92 162.7 1293.9 -103.44C1293.05 -111.03 1282.1 -111.26 1280.92 -103.71C1252.98 75.96 1177.07 564.04 1149.23 743.04C1144.12 775.93 1125.51 805.2 1097.9 823.79C1083.79 833.29 1080.35 835.61 1065.14 845.85C1040.49 862.45 1011.45 871.32 981.73 871.32C722.91 871.32 75.86 871.32 -959.42 871.32" id="ddmUFCqhJ"></path><path d="M2566.88 878.19C2185.16 878.19 1946.59 878.19 1851.16 878.19C1787.2 878.19 1726.5 906.41 1685.28 955.32C1638.29 1011.08 1563.64 1099.64 1516.98 1155.01C1491.79 1184.89 1443.07 1170.14 1438.69 1131.3C1409.9 876.02 1330.23 169.57 1300.21 -96.56C1299.35 -104.16 1288.4 -104.39 1287.23 -96.84C1259.28 82.83 1183.38 570.91 1155.54 749.92C1150.42 782.81 1131.82 812.07 1104.21 830.66C1090.09 840.17 1086.65 842.48 1071.44 852.73C1046.79 869.33 1017.75 878.19 988.03 878.19C729.21 878.19 82.16 878.19 -953.12 878.19" id="g7BSnk0RJ"></path><path d="M2573.88 886.07C2192.16 886.07 1953.59 886.07 1858.16 886.07C1794.2 886.07 1733.5 914.29 1692.28 963.19C1645.29 1018.96 1570.64 1107.52 1523.98 1162.88C1498.79 1192.77 1450.07 1178.02 1445.69 1139.18C1416.9 883.9 1337.23 177.45 1307.21 -88.69C1306.35 -96.28 1295.4 -96.51 1294.23 -88.96C1266.28 90.71 1190.38 578.79 1162.54 757.79C1157.42 790.68 1138.82 819.95 1111.21 838.54C1097.09 848.04 1093.65 850.36 1078.44 860.6C1053.79 877.2 1024.75 886.07 995.03 886.07C736.21 886.07 89.16 886.07 -946.12 886.07" id="a23DQdR2yX"></path></defs><g><g><g><g><use xlink:href="#ddmUFCqhJ" opacity="1" fill-opacity="0" stroke="#403e3e" stroke-width="2" stroke-opacity="1"></use></g></g><g><g><use xlink:href="#g7BSnk0RJ" opacity="1" fill-opacity="0" stroke="#403e3e" stroke-width="2" stroke-opacity="1"></use></g></g><g><g><use xlink:href="#a23DQdR2yX" opacity="1" fill-opacity="0" stroke="#403e3e" stroke-width="2" stroke-opacity="1"></use></g></g></g></g></svg>